<svg id="visual" viewBox="0 0 900 600" width="900" height="600" xmlns="http://www.w3.org/2000/svg" xmlns:xlink="http://www.w3.org/1999/xlink" version="1.1"><rect x="0" y="0" width="900" height="600" fill="#d9dee1"></rect><defs><linearGradient id="grad1_0" x1="33.3%" y1="0%" x2="100%" y2="100%"><stop offset="20%" stop-color="#d9dee1" stop-opacity="1"></stop><stop offset="80%" stop-color="#d9dee1" stop-opacity="1"></stop></linearGradient></defs><defs><linearGradient id="grad2_0" x1="0%" y1="0%" x2="66.7%" y2="100%"><stop offset="20%" stop-color="#d9dee1" stop-opacity="1"></stop><stop offset="80%" stop-color="#d9dee1" stop-opacity="1"></stop></linearGradient></defs><g transform="translate(900, 0)"><path d="M0 432.7C-82.4 425.2 -164.8 417.8 -216.3 374.7C-267.9 331.6 -288.6 252.9 -319.6 184.5C-350.5 116.1 -391.6 58.1 -432.7 0L0 0Z" fill="#20243f"></path></g><g transform="translate(0, 600)"><path d="M0 -432.7C55.1 -386.5 110.2 -340.3 179 -310C247.8 -279.8 330.1 -265.4 374.7 -216.3C419.3 -167.3 426 -83.7 432.7 0L0 0Z" fill="#20243f"></path></g></svg>